<?xml version="1.0" encoding="UTF-8"?>
<svg version="1.1" xmlns="http://www.w3.org/2000/svg" width="180" height="180">
<path d="M0 0 C59.4 0 118.8 0 180 0 C180 59.4 180 118.8 180 180 C120.6 180 61.2 180 0 180 C0 120.6 0 61.2 0 0 Z " fill="#FCFDFD" transform="translate(0,0)"/>
<path d="M0 0 C3.375 1.75 3.375 1.75 4.984375 2.86328125 C8.6628415 4.93776526 12.84409468 5.73810019 16.9140625 6.77734375 C20 8 20 8 25 13 C19.39 12.67 13.78 12.34 8 12 C8 12.66 8 13.32 8 14 C8.68707031 14.18175781 9.37414062 14.36351562 10.08203125 14.55078125 C10.98308594 14.80214844 11.88414063 15.05351563 12.8125 15.3125 C13.70582031 15.55613281 14.59914063 15.79976562 15.51953125 16.05078125 C18.05247738 17.0200819 19.2716496 17.95009604 21 20 C19.02 20.33 17.04 20.66 15 21 C14.01 25.455 14.01 25.455 13 30 C17.95 30 22.9 30 28 30 C27.47849217 23.97486016 27.47849217 23.97486016 24.0859375 19.32421875 C22.64433222 18.46078378 21.17515875 17.64136249 19.6796875 16.875 C19.12539062 16.58625 18.57109375 16.2975 18 16 C18 15.67 18 15.34 18 15 C22.13998349 14.67529541 24.33999001 14.5695587 27.875 16.875 C30.11945699 19.11945699 30.95561022 20.01632238 31.09765625 23.1640625 C31.08605469 23.97617187 31.07445312 24.78828125 31.0625 25.625 C31.05347656 26.44226563 31.04445313 27.25953125 31.03515625 28.1015625 C31.02355469 28.72804688 31.01195312 29.35453125 31 30 C32.485 30.495 32.485 30.495 34 31 C34.02888146 34.31248187 34.04675799 37.62493167 34.0625 40.9375 C34.07087891 41.88302734 34.07925781 42.82855469 34.08789062 43.80273438 C34.09111328 44.70185547 34.09433594 45.60097656 34.09765625 46.52734375 C34.10289307 47.35999756 34.10812988 48.19265137 34.11352539 49.05053711 C34 51 34 51 33 52 C31.15840977 52.09959621 29.31303033 52.13080411 27.46875 52.1328125 C26.34855469 52.13410156 25.22835937 52.13539062 24.07421875 52.13671875 C22.89472656 52.13285156 21.71523437 52.12898438 20.5 52.125 C18.73076172 52.13080078 18.73076172 52.13080078 16.92578125 52.13671875 C15.24548828 52.13478516 15.24548828 52.13478516 13.53125 52.1328125 C12.49548828 52.13168457 11.45972656 52.13055664 10.39257812 52.12939453 C8 52 8 52 7 51 C6.91330568 49.5112814 6.89296506 48.018555 6.90234375 46.52734375 C6.90717773 45.17866211 6.90717773 45.17866211 6.91210938 43.80273438 C6.92467773 42.38444336 6.92467773 42.38444336 6.9375 40.9375 C6.94201172 39.98810547 6.94652344 39.03871094 6.95117188 38.06054688 C6.9629989 35.70696935 6.97947975 33.35351523 7 31 C7.99 30.67 8.98 30.34 10 30 C9.98839844 29.38511719 9.97679688 28.77023438 9.96484375 28.13671875 C9.95582031 27.32847656 9.94679688 26.52023438 9.9375 25.6875 C9.92589844 24.88699219 9.91429688 24.08648437 9.90234375 23.26171875 C10 21 10 21 11 18 C6.80037142 19.10601568 6.80037142 19.10601568 3.33203125 21.59375 C1.49599389 24.91046265 1.5614105 28.05342892 1.5 31.75 C0.930697 44.49669409 -3.67800507 53.30062369 -13.296875 62.1015625 C-18.35930095 66 -18.35930095 66 -21 66 C-20.95875 66.721875 -20.9175 67.44375 -20.875 68.1875 C-21.00965915 71.2173309 -21.81896554 73.23340353 -23 76 C-17.82118847 80.57890192 -13.72593712 83.69207687 -6.75 84.515625 C-6.1725 84.67546875 -5.595 84.8353125 -5 85 C-4.67 85.99 -4.34 86.98 -4 88 C-7.3 88 -10.6 88 -14 88 C-14 88.66 -14 89.32 -14 90 C-21.92 90 -29.84 90 -38 90 C-36 86 -36 86 -33.875 85.25 C-33.25625 85.1675 -32.6375 85.085 -32 85 C-33.4566677 83.85204994 -34.91538937 82.70670581 -36.375 81.5625 C-37.18710938 80.92441406 -37.99921875 80.28632812 -38.8359375 79.62890625 C-40.89398106 77.97776453 -40.89398106 77.97776453 -43 77 C-43 75.68 -43 74.36 -43 73 C-44.41702513 73.14230808 -45.8336096 73.28900746 -47.25 73.4375 C-48.03890625 73.51871094 -48.8278125 73.59992188 -49.640625 73.68359375 C-50.80851562 73.84021484 -50.80851562 73.84021484 -52 74 C-52.71671875 74.09410156 -53.4334375 74.18820313 -54.171875 74.28515625 C-56.71617784 75.2800439 -56.89999874 76.53565609 -58 79 C-65.6520629 89.19216676 -65.6520629 89.19216676 -71.5625 90.625 C-72.696875 90.74875 -73.83125 90.8725 -75 91 C-73.50923566 87.7173068 -71.61379679 85.06922559 -69.375 82.25 C-68.74335937 81.45078125 -68.11171875 80.6515625 -67.4609375 79.828125 C-66.97882813 79.22484375 -66.49671875 78.6215625 -66 78 C-67.26173454 79.26173454 -68.45538049 80.59001922 -69.66015625 81.90625 C-70.79344576 83.10494726 -71.92760038 84.30282705 -73.0625 85.5 C-73.61099609 86.10714844 -74.15949219 86.71429688 -74.72460938 87.33984375 C-78.9995584 91.78816845 -81.8270706 92.83773241 -88 93 C-86.05264934 90.60754062 -84.04953791 88.30479171 -82 86 C-81.57557617 85.50145508 -81.15115234 85.00291016 -80.71386719 84.48925781 C-72.87453748 75.37868545 -65.94530223 71.01004432 -54.46142578 67.72753906 C-49.75167043 66.33544712 -45.130229 64.69621762 -40.5 63.0625 C-39.59258057 62.76239014 -38.68516113 62.46228027 -37.75024414 62.15307617 C-27.47676781 58.55485742 -18.5802971 51.5794952 -12.90234375 42.18359375 C-10.92467086 38.07187384 -10.50935733 34.49755784 -11 30 C-12.73036478 25.26426481 -14.47940128 23.20234297 -19 21 C-19.66 20.67 -20.32 20.34 -21 20 C-22.70702735 19.93003986 -24.41668003 19.91559846 -26.125 19.9375 C-27.49011719 19.95103516 -27.49011719 19.95103516 -28.8828125 19.96484375 C-29.93082031 19.98224609 -29.93082031 19.98224609 -31 20 C-22.96129793 7.56901742 -16.13234817 -1.66807566 0 0 Z " fill="#296B6F" transform="translate(107,23)"/>
<path d="M0 0 C3.07365786 1.80803404 4.43019732 2.86039464 6 6 C6.78713877 11.82881241 6.70922923 16.69698596 3.5 21.75 C-7.04501513 35.46828357 -22.82656488 40.67680456 -38.75439453 45.70996094 C-41.29294665 46.51359571 -43.82425306 47.33764218 -46.35546875 48.1640625 C-47.97097217 48.68348127 -49.58684407 49.20175569 -51.203125 49.71875 C-51.9582135 49.96443726 -52.713302 50.21012451 -53.49127197 50.46325684 C-58.76881334 52.11559333 -58.76881334 52.11559333 -61 51 C-53.97579809 43.65560655 -45.81794816 39.4557981 -36.86132812 34.96240234 C-34.50826451 33.74574747 -32.24678956 32.40203207 -30 31 C-30.89203125 31.34933594 -31.7840625 31.69867188 -32.703125 32.05859375 C-33.87359375 32.51363281 -35.0440625 32.96867187 -36.25 33.4375 C-37.41015625 33.88996094 -38.5703125 34.34242187 -39.765625 34.80859375 C-42.18966308 35.70150633 -44.48286475 36.45794365 -47 37 C-41.88045064 29.88951478 -36.22527575 23.29523974 -30.47216797 16.69677734 C-29.13744526 15.15841535 -27.81966483 13.60539428 -26.50390625 12.05078125 C-18.67989899 2.97927197 -12.53303483 -1.99880297 0 0 Z " fill="#276A6E" transform="translate(88,45)"/>
<path d="M0 0 C-0.5881668 3.02485781 -1.24070528 6.01386614 -2 9 C3.17881153 13.57890192 7.27406288 16.69207687 14.25 17.515625 C14.8275 17.67546875 15.405 17.8353125 16 18 C16.495 19.485 16.495 19.485 17 21 C13.7 21 10.4 21 7 21 C7 21.66 7 22.32 7 23 C-0.92 23 -8.84 23 -17 23 C-16.67 22.34 -16.34 21.68 -16 21 C-9.07 21 -2.14 21 5 21 C3.8304831 19.59910457 3.8304831 19.59910457 0.5625 19.9375 C-5.54511811 19.31676204 -9.60709085 14.95181786 -14 11 C-11.93428549 5.64831769 -10.72636947 3.81775396 -5.4375 1.3125 C-2 0 -2 0 0 0 Z " fill="#EEF3F3" transform="translate(86,90)"/>
<path d="M0 0 C4.03843343 2.60254599 6.29289779 5.25369336 7.8125 9.8125 C8.40026741 17.4534763 6.31214504 22.26300153 1.5 27.9375 C-5.87815562 35.94983671 -14.01111476 40.63184525 -24.1875 44.25 C-25.01258057 44.54640381 -25.83766113 44.84280762 -26.68774414 45.14819336 C-28.37150729 45.75031342 -30.05648253 46.34905516 -31.74267578 46.94433594 C-34.04215308 47.76088689 -36.33187442 48.60052475 -38.62109375 49.4453125 C-39.95527636 49.9231412 -41.28988732 50.39977622 -42.625 50.875 C-44.38650391 51.51115234 -44.38650391 51.51115234 -46.18359375 52.16015625 C-49.59244194 52.90043928 -50.28862077 52.47731506 -53.1875 50.8125 C-51.8277002 50.35979736 -51.8277002 50.35979736 -50.44042969 49.89794922 C-47.01550344 48.7550656 -43.59465548 47.60035601 -40.17480469 46.44238281 C-38.70580742 45.94673249 -37.23578119 45.45411936 -35.76464844 44.96484375 C-14.04490807 37.82170978 -14.04490807 37.82170978 2.375 22.5 C4.32888731 17.48785428 4.72171139 13.12032868 3.8125 7.8125 C2.14583333 4.47916667 2.14583333 4.47916667 -1.1875 2.8125 C-3.80896186 2.3474683 -6.31955621 2.12657936 -8.98046875 2.05078125 C-11.1875 1.8125 -11.1875 1.8125 -13.1875 -0.1875 C-8.48227445 -1.75590852 -4.66101184 -1.73645539 0 0 Z " fill="#D7E3E3" transform="translate(89.1875,43.1875)"/>
<path d="M0 0 C2.4375 1.0625 2.4375 1.0625 4 3 C5.10373378 6.97344161 5.41543583 9.08999772 3.6875 12.875 C2 15 2 15 0 16 C-7.11748879 16.68878924 -7.11748879 16.68878924 -10.5625 14 C-12.60891416 9.72922263 -12.11131863 7.59345034 -11 3 C-8.75479062 -1.22627648 -4.24561682 -0.6077395 0 0 Z " fill="#3E797D" transform="translate(133,135)"/>
<path d="M0 0 C5.94 0 11.88 0 18 0 C17.67 0.99 17.34 1.98 17 3 C15.35 3.33 13.7 3.66 12 4 C12.49371094 4.33773437 12.98742187 4.67546875 13.49609375 5.0234375 C14.13675781 5.46945313 14.77742187 5.91546875 15.4375 6.375 C16.07558594 6.81585938 16.71367187 7.25671875 17.37109375 7.7109375 C19 9 19 9 20 11 C20 13.31 20 15.62 20 18 C15.05 18 10.1 18 5 18 C5 11 5 11 7 8 C8.65 7.67 10.3 7.34 12 7 C8.04 5.35 4.08 3.7 0 2 C0 1.34 0 0.68 0 0 Z " fill="#E8EFEF" transform="translate(115,35)"/>
<path d="M0 0 C1.32 0 2.64 0 4 0 C4.99 2.97 5.98 5.94 7 9 C7.99 6.03 8.98 3.06 10 0 C11.32 0 12.64 0 14 0 C14.99 2.97 15.98 5.94 17 9 C18.32 6.03 19.64 3.06 21 0 C21.99 0 22.98 0 24 0 C23.39363767 5.76044212 21.24341721 10.72014369 19 16 C17.078125 15.64453125 17.078125 15.64453125 15 15 C13.21715186 11.70173093 13 9.8225249 13 6 C12.34 6 11.68 6 11 6 C10.34 8.97 9.68 11.94 9 15 C7.68 15.33 6.36 15.66 5 16 C4.26686896 14.03387584 3.53375722 12.06774448 2.80078125 10.1015625 C2.17160236 8.45035157 1.4998218 6.81536743 0.8125 5.1875 C0 3 0 3 0 0 Z " fill="#4C8487" transform="translate(139,135)"/>
<path d="M0 0 C1.32 0 2.64 0 4 0 C4 4.29 4 8.58 4 13 C5.98 12.34 7.96 11.68 10 11 C10.33 7.37 10.66 3.74 11 0 C12.32 0 13.64 0 15 0 C15 5.28 15 10.56 15 16 C5.0390625 16.29296875 5.0390625 16.29296875 2 16 C-0.42130331 12.36804504 -0.21022785 10.61650652 -0.125 6.3125 C-0.09792969 4.54326172 -0.09792969 4.54326172 -0.0703125 2.73828125 C-0.04710937 1.83464844 -0.02390625 0.93101562 0 0 Z " fill="#4C8487" transform="translate(46,135)"/>
<path d="M0 0 C2 1.5 2 1.5 3 3 C2.67 3.99 2.34 4.98 2 6 C1.278125 5.649375 0.55625 5.29875 -0.1875 4.9375 C-3.38363569 3.87212144 -4.8394149 3.9187472 -8 5 C-9.91666667 6.08333333 -9.91666667 6.08333333 -11 8 C-11.42030443 11.29238472 -11.295454 13.33957342 -9.9375 16.375 C-7.97895193 18.33152457 -7.97895193 18.33152457 -4.5625 18.3125 C-1.87896025 18.07710178 0.45023147 17.81592593 3 17 C3 17.99 3 18.98 3 20 C-0.16694455 22.11129637 -3.25519913 22.47202483 -7.03125 22.39453125 C-10.38693026 21.72206358 -11.95936396 19.59717314 -14 17 C-15.61429923 13.77140153 -15.59570657 10.49006347 -15 7 C-11.38595226 0.70238696 -7.0570333 -0.86589366 0 0 Z " fill="#3A787B" transform="translate(105,129)"/>
<path d="M0 0 C5.28 0 10.56 0 16 0 C16 0.99 16 1.98 16 3 C14.02 3 12.04 3 10 3 C10 8.94 10 14.88 10 21 C8.68 21 7.36 21 6 21 C6 15.06 6 9.12 6 3 C4.02 3 2.04 3 0 3 C0 2.01 0 1.02 0 0 Z " fill="#467F82" transform="translate(17,130)"/>
<path d="M0 0 C-0.33 1.98 -0.66 3.96 -1 6 C4.83485538 11.15895015 9.24440075 13.89205725 17 15 C17 15.66 17 16.32 17 17 C8.47675992 18.32257174 3.69942536 14.82933021 -3.05859375 10.1640625 C-6 8 -6 8 -8 6 C-8 4.68 -8 3.36 -8 2 C-2.25 0 -2.25 0 0 0 Z " fill="#347377" transform="translate(85,93)"/>
<path d="M0 0 C2.05078125 0.03255208 4.1015625 0.06510417 6.15234375 0.09765625 C6.48234375 1.08765625 6.81234375 2.07765625 7.15234375 3.09765625 C4.84234375 3.09765625 2.53234375 3.09765625 0.15234375 3.09765625 C0.15234375 4.08765625 0.15234375 5.07765625 0.15234375 6.09765625 C1.85390625 6.56171875 1.85390625 6.56171875 3.58984375 7.03515625 C7.15234375 8.09765625 7.15234375 8.09765625 8.15234375 9.09765625 C8.33984375 11.53515625 8.33984375 11.53515625 8.15234375 14.09765625 C6.15234375 16.09765625 6.15234375 16.09765625 3.98828125 16.29296875 C3.17617187 16.26976562 2.3640625 16.2465625 1.52734375 16.22265625 C0.71007812 16.20460937 -0.1071875 16.1865625 -0.94921875 16.16796875 C-1.57570313 16.14476562 -2.2021875 16.1215625 -2.84765625 16.09765625 C-3.17765625 14.77765625 -3.50765625 13.45765625 -3.84765625 12.09765625 C-0.87765625 12.42765625 2.09234375 12.75765625 5.15234375 13.09765625 C5.15234375 12.10765625 5.15234375 11.11765625 5.15234375 10.09765625 C4.01796875 9.78828125 2.88359375 9.47890625 1.71484375 9.16015625 C-1.84765625 8.09765625 -1.84765625 8.09765625 -2.84765625 7.09765625 C-2.97265625 4.09765625 -2.97265625 4.09765625 -2.84765625 1.09765625 C-1.84765625 0.09765625 -1.84765625 0.09765625 0 0 Z " fill="#306F73" transform="translate(67.84765625,134.90234375)"/>
<path d="M0 0 C0.99 0 1.98 0 3 0 C3 1.32 3 2.64 3 4 C4.65 4 6.3 4 8 4 C8 4.99 8 5.98 8 7 C6.35 7 4.7 7 3 7 C3 10.3 3 13.6 3 17 C4.65 17 6.3 17 8 17 C8 17.99 8 18.98 8 20 C5.125 20.125 5.125 20.125 2 20 C0 18 0 18 -0.1953125 15.3984375 C-0.17210938 14.40070313 -0.14890625 13.40296875 -0.125 12.375 C-0.10695313 11.37210938 -0.08890625 10.36921875 -0.0703125 9.3359375 C-0.04710938 8.56507813 -0.02390625 7.79421875 0 7 C-0.66 7 -1.32 7 -2 7 C-2 6.01 -2 5.02 -2 4 C-1.34 4 -0.68 4 0 4 C0 2.68 0 1.36 0 0 Z " fill="#437D80" transform="translate(80,131)"/>
<path d="M0 0 C3.0625 0.1875 3.0625 0.1875 5.0625 2.1875 C5.3125 5.1875 5.3125 5.1875 5.0625 8.1875 C3.0625 10.1875 3.0625 10.1875 0.5625 10.4375 C-1.9375 10.1875 -1.9375 10.1875 -3.9375 8.1875 C-4.125 4.625 -4.125 4.625 -3.9375 1.1875 C-2.9375 0.1875 -2.9375 0.1875 0 0 Z " fill="#F4F7F7" transform="translate(128.9375,137.8125)"/>
<path d="M0 0 C0.99 0 1.98 0 3 0 C3 0.66 3 1.32 3 2 C3.99 1.34 4.98 0.68 6 0 C6.99 0 7.98 0 9 0 C9 0.99 9 1.98 9 3 C8.03320312 3.32097656 8.03320312 3.32097656 7.046875 3.6484375 C4.72160885 4.8473523 4.72160885 4.8473523 4.390625 7.6015625 C4.34421875 8.59929687 4.2978125 9.59703125 4.25 10.625 C4.19328125 11.62789062 4.1365625 12.63078125 4.078125 13.6640625 C4.05234375 14.43492187 4.0265625 15.20578125 4 16 C2.68 16 1.36 16 0 16 C0 10.72 0 5.44 0 0 Z " fill="#457E81" transform="translate(111,135)"/>
<path d="M0 0 C0.05437607 1.58294782 0.09296271 3.16644256 0.125 4.75 C0.14820312 5.63171875 0.17140625 6.5134375 0.1953125 7.421875 C-0.00860498 10.1135858 -0.63448279 11.69904974 -2 14 C-2 13.01 -2 12.02 -2 11 C-3.65 11 -5.3 11 -7 11 C-7 7.7 -7 4.4 -7 1 C-2.25 0 -2.25 0 0 0 Z " fill="#EDF2F2" transform="translate(90,137)"/>
<path d="M0 0 C0.99 1.485 0.99 1.485 2 3 C-5.26 3 -12.52 3 -20 3 C-19.67 2.01 -19.34 1.02 -19 0 C-12.79699854 -2.89473402 -6.4388961 -2.00299499 0 0 Z " fill="#337276" transform="translate(90,109)"/>
<path d="M0 0 C5.94 0 11.88 0 18 0 C17.67 0.99 17.34 1.98 17 3 C15.35 3.33 13.7 3.66 12 4 C14.475 5.98 14.475 5.98 17 8 C12.94180817 7.34496718 9.46028718 6.05440879 5.6875 4.4375 C4.61886719 3.98246094 3.55023438 3.52742188 2.44921875 3.05859375 C1.64097656 2.70925781 0.83273438 2.35992187 0 2 C0 1.34 0 0.68 0 0 Z " fill="#C6D8D8" transform="translate(115,35)"/>
<path d="M0 0 C1.32 0.33 2.64 0.66 4 1 C6.68149993 0.61432869 6.68149993 0.61432869 9 0 C9 0.99 9 1.98 9 3 C7.35 3.66 5.7 4.32 4 5 C3.67 8.63 3.34 12.26 3 16 C2.01 16 1.02 16 0 16 C0 10.72 0 5.44 0 0 Z " fill="#377578" transform="translate(35,135)"/>
<path d="M0 0 C1.67542976 0.28604898 3.34385343 0.61781233 5 1 C4.67 4.3 4.34 7.6 4 11 C2.35 11 0.7 11 -1 11 C-1.02688151 9.35425434 -1.04634123 7.70838587 -1.0625 6.0625 C-1.07410156 5.14597656 -1.08570312 4.22945312 -1.09765625 3.28515625 C-1 1 -1 1 0 0 Z " fill="#D6E3E3" transform="translate(126,59)"/>
<path d="M0 0 C4.17767619 1.61410217 8.32110516 1.21729632 12.75 1.0625 C12.75 1.7225 12.75 2.3825 12.75 3.0625 C9.45 3.0625 6.15 3.0625 2.75 3.0625 C2.75 3.7225 2.75 4.3825 2.75 5.0625 C-5.17 5.0625 -13.09 5.0625 -21.25 5.0625 C-20.92 4.4025 -20.59 3.7425 -20.25 3.0625 C-13.32 3.0625 -6.39 3.0625 0.75 3.0625 C-0.74743119 1.56506881 -2.23824239 1.73047307 -4.3125 1.5 C-5.611875 1.355625 -6.91125 1.21125 -8.25 1.0625 C-8.25 0.7325 -8.25 0.4025 -8.25 0.0625 C-2.85895522 -1.19123134 -2.85895522 -1.19123134 0 0 Z " fill="#ADC7C7" transform="translate(90.25,107.9375)"/>
<path d="M0 0 C1.32 0 2.64 0 4 0 C4.20496094 0.62648437 4.40992188 1.25296875 4.62109375 1.8984375 C4.89050781 2.71570313 5.15992188 3.53296875 5.4375 4.375 C5.83775391 5.59316406 5.83775391 5.59316406 6.24609375 6.8359375 C6.95179729 9.01031799 6.95179729 9.01031799 8 11 C7.01 11 6.02 11 5 11 C4.67 12.32 4.34 13.64 4 15 C3.32779649 13.06441401 2.66241923 11.12645628 2 9.1875 C1.62875 8.10855469 1.2575 7.02960938 0.875 5.91796875 C0 3 0 3 0 0 Z " fill="#578B8E" transform="translate(139,135)"/>
<path d="M0 0 C2 1.5 2 1.5 3 3 C2.67 3.99 2.34 4.98 2 6 C1.278125 5.649375 0.55625 5.29875 -0.1875 4.9375 C-3.98532077 3.67155974 -6.47128682 4.23564341 -10 6 C-10 4.35 -10 2.7 -10 1 C-6.82975235 -0.58512383 -3.45332972 -0.42372144 0 0 Z " fill="#468083" transform="translate(105,129)"/>
<path d="M0 0 C0.66 0.33 1.32 0.66 2 1 C1.690625 1.639375 1.38125 2.27875 1.0625 2.9375 C-0.31935403 6.92049104 -0.6536543 10.81650849 -1 15 C-1.66 15 -2.32 15 -3 15 C-4.59869331 11.80261338 -4.51085495 8.469833 -4 5 C-2 2 -2 2 0 0 Z " fill="#2E6E72" transform="translate(94,131)"/>
<path d="M0 0 C0.33 0 0.66 0 1 0 C1.125 2.375 1.125 2.375 1 5 C-1 7 -1 7 -3.1640625 7.1953125 C-4.38222656 7.16050781 -4.38222656 7.16050781 -5.625 7.125 C-6.44226563 7.10695312 -7.25953125 7.08890625 -8.1015625 7.0703125 C-8.72804688 7.04710937 -9.35453125 7.02390625 -10 7 C-10.33 5.68 -10.66 4.36 -11 3 C-7.7 3 -4.4 3 -1 3 C-0.67 2.01 -0.34 1.02 0 0 Z " fill="#4E8588" transform="translate(75,144)"/>
<path d="M0 0 C1.32 0 2.64 0 4 0 C4 5.28 4 10.56 4 16 C3.67 16 3.34 16 3 16 C2.67 13.03 2.34 10.06 2 7 C1.34 7.99 0.68 8.98 0 10 C0 6.7 0 3.4 0 0 Z " fill="#5F9193" transform="translate(57,135)"/>
<path d="M0 0 C-0.33 1.32 -0.66 2.64 -1 4 C-3.64 4.33 -6.28 4.66 -9 5 C-9.0825 5.61875 -9.165 6.2375 -9.25 6.875 C-10 9 -10 9 -12.0625 10.25 C-12.701875 10.4975 -13.34125 10.745 -14 11 C-12.8138286 7.62397371 -11.88004752 5.18486363 -9 3 C-2.66666667 0 -2.66666667 0 0 0 Z " fill="#CCDCDC" transform="translate(86,90)"/>
<path d="M0 0 C1.94158017 3.51624755 2.18311068 5.9715651 2 10 C3.65 10 5.3 10 7 10 C7 10.99 7 11.98 7 13 C5.00045254 13.04254356 2.99958364 13.04080783 1 13 C0 12 0 12 -0.09765625 9.27734375 C-0.08605469 8.17519531 -0.07445313 7.07304687 -0.0625 5.9375 C-0.05347656 4.83277344 -0.04445313 3.72804687 -0.03515625 2.58984375 C-0.02355469 1.73519531 -0.01195313 0.88054687 0 0 Z " fill="#327175" transform="translate(81,138)"/>
<path d="M0 0 C1.12377697 3.30435084 0.89554742 5.0506862 -0.4375 8.25 C-0.72496094 8.95640625 -1.01242188 9.6628125 -1.30859375 10.390625 C-1.53675781 10.92171875 -1.76492187 11.4528125 -2 12 C-2.99 12 -3.98 12 -5 12 C-5 10.35 -5 8.7 -5 7 C-4.01 7 -3.02 7 -2 7 C-1.855625 6.030625 -1.71125 5.06125 -1.5625 4.0625 C-1 1 -1 1 0 0 Z " fill="#347276" transform="translate(149,139)"/>
<path d="M0 0 C1.6254308 0.14095064 3.25034051 0.28792087 4.875 0.4375 C5.77992187 0.51871094 6.68484375 0.59992188 7.6171875 0.68359375 C10 1 10 1 12 2 C12 2.66 12 3.32 12 4 C10.56416999 4.10836453 9.1259798 4.18576167 7.6875 4.25 C6.48673828 4.31960937 6.48673828 4.31960937 5.26171875 4.390625 C3 4 3 4 1.20703125 1.984375 C0.80871094 1.32953125 0.41039063 0.6746875 0 0 Z " fill="#2B6D71" transform="translate(90,106)"/>
<path d="M0 0 C0.99 0 1.98 0 3 0 C2.56802365 4.7517398 1.67230705 6.92000054 -2 10 C-1.85950482 8.52031676 -1.71245174 7.04125484 -1.5625 5.5625 C-1.48128906 4.73878906 -1.40007812 3.91507813 -1.31640625 3.06640625 C-1 1 -1 1 0 0 Z " fill="#437D80" transform="translate(160,135)"/>
<path d="M0 0 C-6.93 3.465 -6.93 3.465 -14 7 C-14.66 6.01 -15.32 5.02 -16 4 C-13.90049414 3.13444052 -11.7952093 2.28288723 -9.6875 1.4375 C-8.51574219 0.96183594 -7.34398437 0.48617187 -6.13671875 -0.00390625 C-3 -1 -3 -1 0 0 Z " fill="#B8CECF" transform="translate(61,76)"/>
<path d="M0 0 C1.71875 1.515625 1.71875 1.515625 3 3 C1.20866022 3.05391993 -0.58313899 3.09275571 -2.375 3.125 C-3.37273437 3.14820313 -4.37046875 3.17140625 -5.3984375 3.1953125 C-8 3 -8 3 -10 1 C-6.44646071 -0.1845131 -3.72986522 -0.26641894 0 0 Z " fill="#CADBDB" transform="translate(86,42)"/>
<path d="M0 0 C2.01822917 0.06510417 4.03645833 0.13020833 6.0546875 0.1953125 C3.81831219 2.43168781 1.95848823 3.03379221 -0.9453125 4.1953125 C-1.6053125 4.8553125 -2.2653125 5.5153125 -2.9453125 6.1953125 C-3.6053125 6.1953125 -4.2653125 6.1953125 -4.9453125 6.1953125 C-3.78219775 0.37973873 -3.78219775 0.37973873 0 0 Z " fill="#387579" transform="translate(126.9453125,134.8046875)"/>
<path d="M0 0 C2.05078125 0.03255208 4.1015625 0.06510417 6.15234375 0.09765625 C6.48234375 1.08765625 6.81234375 2.07765625 7.15234375 3.09765625 C4.84234375 3.09765625 2.53234375 3.09765625 0.15234375 3.09765625 C-0.17765625 3.75765625 -0.50765625 4.41765625 -0.84765625 5.09765625 C-1.50765625 3.77765625 -2.16765625 2.45765625 -2.84765625 1.09765625 C-1.84765625 0.09765625 -1.84765625 0.09765625 0 0 Z " fill="#498285" transform="translate(67.84765625,134.90234375)"/>
<path d="M0 0 C0.33 0.99 0.66 1.98 1 3 C0.34 3 -0.32 3 -1 3 C-1 4.65 -1 6.3 -1 8 C-1.33 8 -1.66 8 -2 8 C-2.2475 7.05125 -2.495 6.1025 -2.75 5.125 C-3.6857077 1.91306809 -3.6857077 1.91306809 -6.125 0.625 C-6.74375 0.41875 -7.3625 0.2125 -8 0 C-4.71023192 -1.09658936 -3.28696233 -0.79953138 0 0 Z " fill="#4C8487" transform="translate(136,137)"/>
<path d="M0 0 C0.99 0.33 1.98 0.66 3 1 C2.75 3.875 2.75 3.875 2 7 C0.02 7.99 0.02 7.99 -2 9 C-1.34 6.03 -0.68 3.06 0 0 Z " fill="#317074" transform="translate(135,140)"/>
<path d="M0 0 C0.66 0.33 1.32 0.66 2 1 C-0.97 4.63 -3.94 8.26 -7 12 C-7.66 11.34 -8.32 10.68 -9 10 C-8.43410156 9.44570312 -7.86820313 8.89140625 -7.28515625 8.3203125 C-6.55167969 7.59585938 -5.81820312 6.87140625 -5.0625 6.125 C-4.33160156 5.40570313 -3.60070313 4.68640625 -2.84765625 3.9453125 C-0.94332001 2.12972808 -0.94332001 2.12972808 0 0 Z " fill="#B4CBCC" transform="translate(40,100)"/>
<path d="M0 0 C0 0.99 0 1.98 0 3 C-1.8125 4.0625 -1.8125 4.0625 -4 5 C-7 4 -7 4 -10 2 C-3.375 0 -3.375 0 0 0 Z " fill="#427C80" transform="translate(108,146)"/>
<path d="M0 0 C0.33 0 0.66 0 1 0 C1 3.3 1 6.6 1 10 C0.34 10 -0.32 10 -1 10 C-2.23076923 4.58461538 -2.23076923 4.58461538 -1.0625 1.625 C-0.5365625 0.820625 -0.5365625 0.820625 0 0 Z " fill="#26686C" transform="translate(59,141)"/>
<path d="M0 0 C0.66 1.32 1.32 2.64 2 4 C-1.21451269 5.60725635 -4.43612536 5.05748185 -8 5 C-5.64722731 2.27573689 -3.37503669 1.1858237 0 0 Z " fill="#4F8688" transform="translate(133,146)"/>
<path d="M0 0 C1.98 0 3.96 0 6 0 C6 0.99 6 1.98 6 3 C3.69 3 1.38 3 -1 3 C-0.67 2.01 -0.34 1.02 0 0 Z " fill="#3C787C" transform="translate(27,130)"/>
<path d="M0 0 C1.32 0 2.64 0 4 0 C4 1.65 4 3.3 4 5 C3.01 5 2.02 5 1 5 C0.67 3.35 0.34 1.7 0 0 Z " fill="#457E81" transform="translate(139,135)"/>
<path d="M0 0 C1.98 0.99 3.96 1.98 6 3 C5.67 3.99 5.34 4.98 5 6 C0.125 4.25 0.125 4.25 -1 2 C-0.67 1.34 -0.34 0.68 0 0 Z " fill="#3E7A7E" transform="translate(86,102)"/>
<path d="M0 0 C-0.33 0.99 -0.66 1.98 -1 3 C-3.375 3.625 -3.375 3.625 -6 4 C-6.66 3.34 -7.32 2.68 -8 2 C-4.91190305 0.23537317 -3.76687864 0 0 0 Z " fill="#C5D7D7" transform="translate(78,80)"/>
<path d="M0 0 C0.33 0 0.66 0 1 0 C1.33 3.63 1.66 7.26 2 11 C1.01 11 0.02 11 -1 11 C-0.67 7.37 -0.34 3.74 0 0 Z " fill="#B7CDCD" transform="translate(94,53)"/>
</svg>
